<?xml version="1.0" encoding="UTF-8" standalone="no"?>
<!-- Created with Inkscape (http://www.inkscape.org/) -->

<svg
   xmlns:dc="http://purl.org/dc/elements/1.1/"
   xmlns:cc="http://creativecommons.org/ns#"
   xmlns:rdf="http://www.w3.org/1999/02/22-rdf-syntax-ns#"
   xmlns:svg="http://www.w3.org/2000/svg"
   xmlns="http://www.w3.org/2000/svg"
   xmlns:sodipodi="http://sodipodi.sourceforge.net/DTD/sodipodi-0.dtd"
   xmlns:inkscape="http://www.inkscape.org/namespaces/inkscape"
   width="20.34375mm"
   height="14.691691mm"
   viewBox="0 0 20.34375 14.691691"
   version="1.1"
   id="svg8"
   inkscape:version="0.92.5 (2060ec1f9f, 2020-04-08)"
   sodipodi:docname="confirm_match.svg">
  <defs
     id="defs2" />
  <sodipodi:namedview
     id="base"
     pagecolor="#ffffff"
     bordercolor="#666666"
     borderopacity="1.0"
     inkscape:pageopacity="0.0"
     inkscape:pageshadow="2"
     inkscape:zoom="13.336833"
     inkscape:cx="56.31174"
     inkscape:cy="17.631016"
     inkscape:document-units="mm"
     inkscape:current-layer="layer1"
     showgrid="true"
     inkscape:window-width="5120"
     inkscape:window-height="2096"
     inkscape:window-x="0"
     inkscape:window-y="27"
     inkscape:window-maximized="1"
     fit-margin-bottom="2"
     fit-margin-top="0"
     fit-margin-left="0"
     fit-margin-right="0">
    <inkscape:grid
       type="xygrid"
       id="grid819"
       originx="-42.083333"
       originy="-165.76041" />
  </sodipodi:namedview>
  <metadata
     id="metadata5">
    <rdf:RDF>
      <cc:Work
         rdf:about="">
        <dc:format>image/svg+xml</dc:format>
        <dc:type
           rdf:resource="http://purl.org/dc/dcmitype/StillImage" />
        <dc:title></dc:title>
      </cc:Work>
    </rdf:RDF>
  </metadata>
  <g
     inkscape:label="Ebene 1"
     inkscape:groupmode="layer"
     id="layer1"
     transform="translate(-42.083333,-116.54789)">
    <path
       style="fill:none;stroke:#008c00;stroke-width:0.5;stroke-linecap:butt;stroke-linejoin:round;stroke-miterlimit:4;stroke-dasharray:none;stroke-opacity:1"
       d="m 43.656249,119.72917 h 17.197917 c 0.793751,0 1.322917,0.52916 1.322917,1.32291 v 6.61459 c 0,0.79375 -0.529166,1.32291 -1.322917,1.32291 H 43.656249 c -0.793749,0 -1.322916,-0.52916 -1.322916,-1.32291 v -6.61459 c 0,-0.79375 0.529167,-1.32291 1.322916,-1.32291 z"
       id="path821"
       inkscape:connector-curvature="0"
       sodipodi:nodetypes="ccccccccc" />
    <path
       style="fill:#007800;fill-opacity:1;stroke:none;stroke-width:0.26458332px;stroke-linecap:butt;stroke-linejoin:miter;stroke-opacity:1"
       d="m 43.656249,120.25833 h 17.197917 c 0.529167,0 0.793751,0.26459 0.79375,0.79375 v 6.61459 c 0.03134,0.50045 -0.264583,0.79375 -0.793749,0.79375 H 43.656249 c -0.529166,0 -0.793749,-0.26459 -0.79375,-0.79375 v -6.61459 c 10e-7,-0.52916 0.264584,-0.79375 0.79375,-0.79375 z"
       id="path823"
       inkscape:connector-curvature="0"
       sodipodi:nodetypes="ccccccccc" />
    <path
       style="fill:#000000;fill-opacity:1;stroke:#fffffa;stroke-width:0.26458332px;stroke-linecap:butt;stroke-linejoin:miter;stroke-opacity:1"
       d="m 48.154167,122.375 c -0.264583,-0.79375 -1.852084,0 -1.322918,0.79375 l 1.322918,2.91042 c 0.79375,1.5875 3.175,1.5875 4.497916,0 l 6.614584,-8.73125 c 0.264583,-0.52917 -0.79375,-1.05834 -1.322917,-0.26459 l -6.35,7.9375 c -0.79375,1.05834 -1.5875,1.05834 -2.116667,0 z"
       id="path827"
       inkscape:connector-curvature="0"
       sodipodi:nodetypes="ccccccccc" />
  </g>
</svg>
