<?xml version="1.0" encoding="UTF-8" standalone="no"?>
<!-- Created with Inkscape (http://www.inkscape.org/) -->

<svg
   xmlns:osb="http://www.openswatchbook.org/uri/2009/osb"
   xmlns:dc="http://purl.org/dc/elements/1.1/"
   xmlns:cc="http://creativecommons.org/ns#"
   xmlns:rdf="http://www.w3.org/1999/02/22-rdf-syntax-ns#"
   xmlns:svg="http://www.w3.org/2000/svg"
   xmlns="http://www.w3.org/2000/svg"
   xmlns:sodipodi="http://sodipodi.sourceforge.net/DTD/sodipodi-0.dtd"
   xmlns:inkscape="http://www.inkscape.org/namespaces/inkscape"
   width="13.49375mm"
   height="9.5249996mm"
   viewBox="0 0 13.49375 9.5249996"
   version="1.1"
   id="svg8"
   inkscape:version="0.92.5 (2060ec1f9f, 2020-04-08)"
   sodipodi:docname="court_inactive.svg">
  <defs
     id="defs2">
    <linearGradient
       id="linearGradient937"
       osb:paint="solid">
      <stop
         style="stop-color:#080808;stop-opacity:1;"
         offset="0"
         id="stop935" />
    </linearGradient>
  </defs>
  <sodipodi:namedview
     id="base"
     pagecolor="#ffffff"
     bordercolor="#666666"
     borderopacity="1.0"
     inkscape:pageopacity="0.0"
     inkscape:pageshadow="2"
     inkscape:zoom="14.534259"
     inkscape:cx="-22.551125"
     inkscape:cy="35.992078"
     inkscape:document-units="mm"
     inkscape:current-layer="layer1"
     showgrid="false"
     inkscape:snap-page="false"
     inkscape:snap-grids="true"
     showguides="true"
     inkscape:window-width="5120"
     inkscape:window-height="2096"
     inkscape:window-x="0"
     inkscape:window-y="27"
     inkscape:window-maximized="1"
     fit-margin-top="0"
     fit-margin-left="0"
     fit-margin-right="0"
     fit-margin-bottom="0">
    <inkscape:grid
       type="xygrid"
       id="grid854"
       originx="-1.7197918"
       originy="-285.35314" />
  </sodipodi:namedview>
  <metadata
     id="metadata5">
    <rdf:RDF>
      <cc:Work
         rdf:about="">
        <dc:format>image/svg+xml</dc:format>
        <dc:type
           rdf:resource="http://purl.org/dc/dcmitype/StillImage" />
        <dc:title></dc:title>
      </cc:Work>
    </rdf:RDF>
  </metadata>
  <g
     inkscape:label="Rahmen"
     inkscape:groupmode="layer"
     id="layer1"
     transform="translate(-1.7197918,-2.1218714)">
    <text
       xml:space="preserve"
       style="font-style:normal;font-weight:normal;font-size:10.58333302px;line-height:1.25;font-family:sans-serif;letter-spacing:0px;word-spacing:0px;fill:#000000;fill-opacity:1;stroke:none;stroke-width:0.26458332"
       x="11.258969"
       y="10.289699"
       id="text889-7"><tspan
         sodipodi:role="line"
         id="tspan887-5"
         x="11.258969"
         y="19.653467"
         style="font-size:1.41111112px;stroke-width:0.26458332" /></text>
    <path
       style="fill:#989898;stroke:#3e3e3e;stroke-width:0.2;stroke-linecap:butt;stroke-linejoin:miter;stroke-opacity:1;fill-opacity:1;stroke-miterlimit:4;stroke-dasharray:none"
       d="M 2.1166667,2.7833444 H 14.816666 V 10.985428 H 2.1166667 Z"
       id="path832"
       inkscape:connector-curvature="0" />
    <path
       style="fill:none;stroke:#3e3e3e;stroke-width:0.2;stroke-linecap:butt;stroke-linejoin:miter;stroke-opacity:1;fill-opacity:1;stroke-miterlimit:4;stroke-dasharray:none"
       d="M 2.1166667,3.5770943 H 14.816666 V 10.191678 H 2.1166667 Z"
       id="path834"
       inkscape:connector-curvature="0" />
    <path
       style="fill:none;stroke:#3e3e3e;stroke-width:0.2;stroke-linecap:butt;stroke-linejoin:miter;stroke-opacity:1;fill-opacity:1;stroke-miterlimit:4;stroke-dasharray:none"
       d="M 3.1750002,2.7833441 H 6.35 V 10.985428 H 3.1750002 Z"
       id="path836"
       inkscape:connector-curvature="0" />
    <path
       style="fill:none;stroke:#3e3e3e;stroke-width:0.2;stroke-linecap:butt;stroke-linejoin:miter;stroke-opacity:1;fill-opacity:1;stroke-miterlimit:4;stroke-dasharray:none"
       d="M 2.1149384,2.7816161 H 6.35 V 6.9014755 H 2.1149384 Z"
       id="path838"
       inkscape:connector-curvature="0" />
    <path
       style="fill:none;stroke:#3e3e3e;stroke-width:0.2;stroke-linecap:butt;stroke-linejoin:miter;stroke-opacity:1;fill-opacity:1;stroke-miterlimit:4;stroke-dasharray:none"
       d="m 10.583334,2.7833444 h 3.174999 v 8.2020836 h -3.174999 z"
       id="path836-6"
       inkscape:connector-curvature="0" />
    <path
       style="fill:none;stroke:#3e3e3e;stroke-width:0.2;stroke-linecap:butt;stroke-linejoin:miter;stroke-opacity:1;fill-opacity:1;stroke-miterlimit:4;stroke-dasharray:none"
       d="m 10.583334,2.7833443 h 4.235061 v 4.119859 h -4.235061 z"
       id="path838-7"
       inkscape:connector-curvature="0" />
    <path
       style="fill:#ff7800;fill-opacity:1;stroke:#000000;stroke-width:0.07578348px;stroke-linecap:butt;stroke-linejoin:miter;stroke-opacity:1"
       d="M 6.35,6.9014755 5.9279818,9.6232251 c 3e-7,0.2041316 0.1688077,0.3402186 0.4220182,0.3402186 h 4.22018 c 0.253211,0 0.422018,-0.136087 0.422018,-0.3402186 L 10.57018,6.9014755 c 0,-0.068046 -0.0844,-0.136087 -0.168807,-0.136087 H 6.5188073 c -0.084404,0 -0.168807,0.068045 -0.1688073,0.136087 z"
       id="path825"
       inkscape:connector-curvature="0"
       sodipodi:nodetypes="cccccccsc" />
    <path
       style="fill:#c95d00;fill-opacity:1;stroke:#000000;stroke-width:0.07896917;stroke-linecap:butt;stroke-linejoin:miter;stroke-miterlimit:4;stroke-dasharray:none;stroke-opacity:1"
       d="m 5.9279818,9.6232251 v 0.3402186 c 3e-7,0.1655123 0.1688077,0.2482673 0.4220182,0.2482673 h 4.22018 c 0.253211,0 0.422018,-0.08275 0.422018,-0.2482673 V 9.6232251 c 0,0.2482676 -0.168807,0.3402186 -0.422018,0.3402186 H 6.35 c -0.2532105,0 -0.4220179,-0.091948 -0.4220182,-0.3402186 z"
       id="path827"
       inkscape:connector-curvature="0"
       sodipodi:nodetypes="ccccccccc" />
    <path
       style="fill:#f16306;fill-opacity:1;stroke:none;stroke-width:0.0835757px;stroke-linecap:butt;stroke-linejoin:miter;stroke-opacity:1"
       d="M 6.7720181,8.3083268 8.0380722,3.7567491 c 0.2642004,-0.0048 0.6005809,0.005 0.8440362,0 l 1.2660546,4.5515777 c -1.2660546,0.827562 -2.1100908,0.827562 -3.3761449,0 z"
       id="path829"
       inkscape:connector-curvature="0"
       sodipodi:nodetypes="ccccc" />
    <path
       style="fill:#ffdd00;fill-opacity:1;stroke:#000000;stroke-width:0.0835757px;stroke-linecap:butt;stroke-linejoin:miter;stroke-opacity:0"
       d="m 7.0252289,7.4807659 c 1.0128433,0.5792933 1.8568795,0.5792933 2.8697224,0 L 9.6417405,6.6532079 c -0.7596321,0.3310218 -1.6036683,0.3310218 -2.3633008,0 z"
       id="path889"
       inkscape:connector-curvature="0"
       sodipodi:nodetypes="ccccc" />
    <path
       style="fill:#ffdd00;fill-opacity:1;stroke:#000000;stroke-width:0.0835757px;stroke-linecap:butt;stroke-linejoin:miter;stroke-opacity:0"
       d="m 7.447247,5.825646 c 0.5908252,0.2482705 1.4348614,0.2482705 2.0256864,3e-6 L 9.2197226,4.998088 c -0.5064216,0.1655124 -1.0128432,0.1655124 -1.5192648,0 z"
       id="path889-6"
       inkscape:connector-curvature="0"
       sodipodi:nodetypes="ccccc" />
    <path
       style="fill:#ffdd00;fill-opacity:1;stroke:#000000;stroke-width:0.0835757px;stroke-linecap:butt;stroke-linejoin:miter;stroke-opacity:0"
       d="m 7.9536686,4.1705261 c 0.3376144,0.082753 0.675229,0.082753 1.0128432,3e-6 l -0.084404,-0.41378 c -0.4220182,0 -0.4220182,0 -0.8440363,0 z"
       id="path889-6-7"
       inkscape:connector-curvature="0"
       sodipodi:nodetypes="ccccc" />
    <path
       style="display:inline;fill:none;fill-opacity:1;stroke:#000000;stroke-width:0.0835757px;stroke-linecap:butt;stroke-linejoin:miter;stroke-opacity:1"
       d="m 6.7720187,8.3083268 1.266054,-4.5515777 c 0.2642006,-0.0048 0.600581,0.005 0.8440366,0 l 1.2660537,4.5515777 c -1.2660537,0.827562 -2.1100903,0.827562 -3.3761443,0 z"
       id="path829-3"
       inkscape:connector-curvature="0"
       sodipodi:nodetypes="ccccc" />
    <path
       style="display:inline;fill:#000000;fill-opacity:1;stroke:#000000;stroke-width:0.0835757px;stroke-linecap:butt;stroke-linejoin:miter;stroke-opacity:1"
       d="m 8.0380717,3.7567491 c 5e-7,0.082763 0.1688077,0.082763 0.4220182,0.082763 0.2532111,0 0.4220185,0 0.4220182,-0.082763 3e-7,-0.082753 -0.1688071,-0.082753 -0.4220182,-0.082753 -0.2532105,0 -0.4220177,0 -0.4220182,0.082753 z"
       id="path921"
       inkscape:connector-curvature="0"
       sodipodi:nodetypes="ccccc" />
  </g>
</svg>
