<?xml version="1.0" encoding="UTF-8" standalone="no"?>
<!-- Created with Inkscape (http://www.inkscape.org/) -->

<svg
   xmlns:dc="http://purl.org/dc/elements/1.1/"
   xmlns:cc="http://creativecommons.org/ns#"
   xmlns:rdf="http://www.w3.org/1999/02/22-rdf-syntax-ns#"
   xmlns:svg="http://www.w3.org/2000/svg"
   xmlns="http://www.w3.org/2000/svg"
   xmlns:sodipodi="http://sodipodi.sourceforge.net/DTD/sodipodi-0.dtd"
   xmlns:inkscape="http://www.inkscape.org/namespaces/inkscape"
   width="16.739584mm"
   height="21.766668mm"
   viewBox="0 0 16.739584 21.766668"
   version="1.1"
   id="svg8"
   inkscape:version="0.92.5 (2060ec1f9f, 2020-04-08)"
   sodipodi:docname="inactive.svg">
  <defs
     id="defs2" />
  <sodipodi:namedview
     id="base"
     pagecolor="#ffffff"
     bordercolor="#666666"
     borderopacity="1.0"
     inkscape:pageopacity="0.0"
     inkscape:pageshadow="2"
     inkscape:zoom="41.109091"
     inkscape:cx="34.321131"
     inkscape:cy="11.047813"
     inkscape:document-units="mm"
     inkscape:current-layer="layer1"
     showgrid="false"
     showguides="false"
     fit-margin-left="0.3"
     fit-margin-top="0.3"
     fit-margin-right="0.3"
     fit-margin-bottom="0.3"
     inkscape:window-width="5120"
     inkscape:window-height="2096"
     inkscape:window-x="0"
     inkscape:window-y="27"
     inkscape:window-maximized="1">
    <inkscape:grid
       type="xygrid"
       id="grid815"
       originx="-59.098961"
       originy="-127.09687" />
  </sodipodi:namedview>
  <metadata
     id="metadata5">
    <rdf:RDF>
      <cc:Work
         rdf:about="">
        <dc:format>image/svg+xml</dc:format>
        <dc:type
           rdf:resource="http://purl.org/dc/dcmitype/StillImage" />
        <dc:title></dc:title>
      </cc:Work>
    </rdf:RDF>
  </metadata>
  <g
     inkscape:label="Ebene 1"
     inkscape:groupmode="layer"
     id="layer1"
     transform="translate(-59.098957,-148.13645)">
    <path
       style="fill:#ff7800;fill-opacity:1;stroke:#000000;stroke-width:0.23991477px;stroke-linecap:butt;stroke-linejoin:miter;stroke-opacity:1"
       d="m 60.854166,158.8875 -1.322917,8.70185 c 10e-7,0.65264 0.529168,1.08773 1.322917,1.08773 h 13.229166 c 0.793751,0 1.322918,-0.43509 1.322917,-1.08773 l -1.322917,-8.70185 c 10e-7,-0.21754 -0.264582,-0.43509 -0.529166,-0.43509 H 61.383333 c -0.264583,0 -0.529166,0.21755 -0.529167,0.43509 z"
       id="path825"
       inkscape:connector-curvature="0"
       sodipodi:nodetypes="cccccccsc" />
    <path
       style="fill:#c95d00;fill-opacity:1;stroke:#000000;stroke-width:0.25;stroke-linecap:butt;stroke-linejoin:miter;stroke-opacity:1;stroke-miterlimit:4;stroke-dasharray:none"
       d="m 59.531249,167.58935 v 1.08773 c 10e-7,0.52917 0.529168,0.79375 1.322917,0.79375 h 13.229166 c 0.793751,0 1.322918,-0.26458 1.322917,-0.79375 v -1.08773 c 10e-7,0.79375 -0.529166,1.08773 -1.322917,1.08773 H 60.854166 c -0.793749,0 -1.322916,-0.29398 -1.322917,-1.08773 z"
       id="path827"
       inkscape:connector-curvature="0"
       sodipodi:nodetypes="ccccccccc" />
    <path
       style="fill:#f16306;fill-opacity:1;stroke:none;stroke-width:0.26458332px;stroke-linecap:butt;stroke-linejoin:miter;stroke-opacity:1"
       d="m 62.177083,163.38542 3.96875,-14.55209 c 0.8282,-0.0154 1.882665,0.016 2.645834,0 l 3.96875,14.55209 c -3.96875,2.64584 -6.614584,2.64584 -10.583334,0 z"
       id="path829"
       inkscape:connector-curvature="0"
       sodipodi:nodetypes="ccccc" />
    <path
       style="fill:#ffdd00;fill-opacity:1;stroke:#000000;stroke-width:0.26458332px;stroke-linecap:butt;stroke-linejoin:miter;stroke-opacity:0"
       d="m 62.970833,160.73958 c 3.175,1.85209 5.820834,1.85209 8.995833,0 l -0.79375,-2.64583 c -2.381249,1.05833 -5.027083,1.05833 -7.408333,0 z"
       id="path889"
       inkscape:connector-curvature="0"
       sodipodi:nodetypes="ccccc" />
    <path
       style="fill:#ffdd00;fill-opacity:1;stroke:#000000;stroke-width:0.26458332px;stroke-linecap:butt;stroke-linejoin:miter;stroke-opacity:0"
       d="m 64.29375,155.44791 c 1.852083,0.79376 4.497917,0.79376 6.35,1e-5 L 69.85,152.80208 c -1.5875,0.52917 -3.175,0.52917 -4.7625,0 z"
       id="path889-6"
       inkscape:connector-curvature="0"
       sodipodi:nodetypes="ccccc" />
    <path
       style="fill:#ffdd00;fill-opacity:1;stroke:#000000;stroke-width:0.26458332px;stroke-linecap:butt;stroke-linejoin:miter;stroke-opacity:0"
       d="m 65.88125,150.15624 c 1.058333,0.26459 2.116667,0.26459 3.175,1e-5 l -0.264583,-1.32292 c -1.322917,0 -1.322917,0 -2.645834,0 z"
       id="path889-6-7"
       inkscape:connector-curvature="0"
       sodipodi:nodetypes="ccccc" />
  </g>
  <g
     inkscape:groupmode="layer"
     id="layer2"
     inkscape:label="Ebene 2"
     style="display:inline"
     transform="translate(-59.098957,-148.13645)">
    <path
       style="fill:none;fill-opacity:1;stroke:#000000;stroke-width:0.26458332px;stroke-linecap:butt;stroke-linejoin:miter;stroke-opacity:1"
       d="m 62.177085,163.38542 3.96875,-14.55209 c 0.8282,-0.0154 1.882665,0.016 2.645835,0 l 3.968747,14.55209 c -3.968747,2.64584 -6.614582,2.64584 -10.583332,0 z"
       id="path829-3"
       inkscape:connector-curvature="0"
       sodipodi:nodetypes="ccccc" />
    <path
       style="fill:#000000;fill-opacity:1;stroke:#000000;stroke-width:0.26458332px;stroke-linecap:butt;stroke-linejoin:miter;stroke-opacity:1"
       d="m 66.145832,148.83333 c 10e-7,0.26459 0.529168,0.26459 1.322917,0.26459 0.793751,0 1.322918,0 1.322917,-0.26459 10e-7,-0.26458 -0.529166,-0.26458 -1.322917,-0.26458 -0.793749,0 -1.322916,0 -1.322917,0.26458 z"
       id="path921"
       inkscape:connector-curvature="0"
       sodipodi:nodetypes="ccccc" />
  </g>
</svg>
