<?xml version="1.0" encoding="UTF-8" standalone="no"?>
<!-- Created with Inkscape (http://www.inkscape.org/) -->

<svg
   xmlns:osb="http://www.openswatchbook.org/uri/2009/osb"
   xmlns:dc="http://purl.org/dc/elements/1.1/"
   xmlns:cc="http://creativecommons.org/ns#"
   xmlns:rdf="http://www.w3.org/1999/02/22-rdf-syntax-ns#"
   xmlns:svg="http://www.w3.org/2000/svg"
   xmlns="http://www.w3.org/2000/svg"
   xmlns:sodipodi="http://sodipodi.sourceforge.net/DTD/sodipodi-0.dtd"
   xmlns:inkscape="http://www.inkscape.org/namespaces/inkscape"
   width="13.49375mm"
   height="9.5249996mm"
   viewBox="0 0 13.49375 9.5249996"
   version="1.1"
   id="svg8"
   inkscape:version="0.92.5 (2060ec1f9f, 2020-04-08)"
   sodipodi:docname="no_umpire.svg">
  <defs
     id="defs2">
    <linearGradient
       id="linearGradient937"
       osb:paint="solid">
      <stop
         style="stop-color:#080808;stop-opacity:1;"
         offset="0"
         id="stop935" />
    </linearGradient>
  </defs>
  <sodipodi:namedview
     id="base"
     pagecolor="#ffffff"
     bordercolor="#666666"
     borderopacity="1.0"
     inkscape:pageopacity="0.0"
     inkscape:pageshadow="2"
     inkscape:zoom="44.8"
     inkscape:cx="19.169409"
     inkscape:cy="20.654098"
     inkscape:document-units="mm"
     inkscape:current-layer="layer1"
     showgrid="true"
     inkscape:snap-page="false"
     inkscape:snap-grids="true"
     showguides="false"
     inkscape:window-width="3840"
     inkscape:window-height="2096"
     inkscape:window-x="1238"
     inkscape:window-y="27"
     inkscape:window-maximized="1"
     fit-margin-top="0"
     fit-margin-left="0"
     fit-margin-right="0"
     fit-margin-bottom="0">
    <inkscape:grid
       type="xygrid"
       id="grid854"
       originx="-1.7197918"
       originy="-285.35314" />
  </sodipodi:namedview>
  <metadata
     id="metadata5">
    <rdf:RDF>
      <cc:Work
         rdf:about="">
        <dc:format>image/svg+xml</dc:format>
        <dc:type
           rdf:resource="http://purl.org/dc/dcmitype/StillImage" />
        <dc:title />
      </cc:Work>
    </rdf:RDF>
  </metadata>
  <g
     inkscape:label="Rahmen"
     inkscape:groupmode="layer"
     id="layer1"
     transform="translate(-1.7197918,-2.1218714)">
    <path
       style="fill:none;stroke:#acacac;stroke-width:0.27245259px;stroke-linecap:butt;stroke-linejoin:miter;stroke-opacity:1"
       d="m 3.96875,10.39237 c 3.175,1.40278 5.8208333,1.40278 8.995833,0 0,-1.9638913 -1.058333,-3.0861153 -2.38125,-3.0861153 -1.5874997,1.4027798 -2.645833,1.4027798 -4.233333,0 -1.3229167,0 -2.38125,1.122224 -2.38125,3.0861153 z"
       id="path832"
       inkscape:connector-curvature="0"
       sodipodi:nodetypes="ccccc" />
    <path
       style="fill:#cccccc;fill-opacity:1;stroke:#acacac;stroke-width:0.16990748;stroke-linecap:butt;stroke-linejoin:miter;stroke-miterlimit:4;stroke-dasharray:none;stroke-opacity:1"
       d="M 6.3499998,7.3062546 C 5.2916667,6.1840308 5.2916667,4.7812509 6.35,3.9395828 c 1.3229167,-1.1222238 3.175,-0.8416679 4.233333,0 1.058334,0.8416681 1.058334,2.244448 0,3.3666718 -1.5874997,1.4027799 -2.645833,1.4027799 -4.2333332,0 z"
       id="path836"
       inkscape:connector-curvature="0"
       sodipodi:nodetypes="ccccc" />
    <path
       style="fill:#acacac;fill-opacity:1;stroke:#acacac;stroke-width:0.06693324;stroke-linecap:butt;stroke-linejoin:miter;stroke-miterlimit:4;stroke-dasharray:none;stroke-opacity:1"
       d="M 5.8208332,6.4645866 C 5.5217187,6.3459517 5.4902102,6.2364374 5.0270833,5.6229188 c -0.5291666,-0.8416679 -0.2645832,-1.9638917 0,-2.2444478 0.7937501,-0.8416678 2.38125,-1.40278 3.4395834,-1.122224 1.5875003,-0.280556 2.3812503,0.561112 3.1749993,1.4027799 0.529167,0.561112 0.529167,0.841668 0.529167,1.6833359 0,0.841668 -0.802798,1.2257968 -1.058333,1.9638919 l -0.529167,-1e-7 C 11.1125,6.7451428 11.90625,5.3423628 10.847916,4.2201388 H 6.0854165 C 5.6473452,4.8640666 5.2916667,5.6229188 5.8208332,6.4645866 Z"
       id="path840"
       inkscape:connector-curvature="0"
       sodipodi:nodetypes="ccccccccccc" />
    <path
       style="fill:#acacac;fill-opacity:1;stroke:none;stroke-width:0.27245259px;stroke-linecap:butt;stroke-linejoin:miter;stroke-opacity:1"
       d="M 7.9374998,8.4284785 H 8.9958331 V 11.514594 H 7.9374998 Z"
       id="path844"
       inkscape:connector-curvature="0"
       sodipodi:nodetypes="ccccc" />
    <path
       style="fill:#acacac;fill-opacity:1;stroke:none;stroke-width:0.27245259px;stroke-linecap:butt;stroke-linejoin:miter;stroke-opacity:1"
       d="M 10.054166,7.8673664 C 10.431207,7.2556815 10.583333,7.3062547 11.1125,7.3062546 v 3.6472274 l -1.058334,0.280556 z"
       id="path846"
       inkscape:connector-curvature="0"
       sodipodi:nodetypes="ccccc" />
    <path
       style="fill:#acacac;fill-opacity:1;stroke:none;stroke-width:0.27245259px;stroke-linecap:butt;stroke-linejoin:miter;stroke-opacity:1"
       d="m 12.170833,8.1479225 c 0.412335,0.3715881 0.705586,1.0466763 0.79375,2.2444475 l -0.79375,0.280556 z"
       id="path848"
       inkscape:connector-curvature="0"
       sodipodi:nodetypes="cccc" />
    <path
       style="fill:#acacac;fill-opacity:1;stroke:none;stroke-width:0.27245259px;stroke-linecap:butt;stroke-linejoin:miter;stroke-opacity:1"
       d="M 6.8791665,7.8673664 C 6.5827485,7.4841023 6.2980526,7.0600252 5.8208332,7.3062546 v 3.6472274 l 1.0583333,0.280556 z"
       id="path850"
       inkscape:connector-curvature="0"
       sodipodi:nodetypes="ccccc" />
    <path
       style="fill:#acacac;fill-opacity:1;stroke:none;stroke-width:0.27245259px;stroke-linecap:butt;stroke-linejoin:miter;stroke-opacity:1"
       d="M 4.7624998,8.1479225 C 4.4649066,8.5924456 4.1293026,8.6873453 3.96875,10.39237 l 0.7937498,0.280556 z"
       id="path852"
       inkscape:connector-curvature="0"
       sodipodi:nodetypes="cccc" />
  </g>
</svg>
