<?xml version="1.0" encoding="UTF-8" standalone="no"?>
<!-- Created with Inkscape (http://www.inkscape.org/) -->

<svg
   xmlns:osb="http://www.openswatchbook.org/uri/2009/osb"
   xmlns:dc="http://purl.org/dc/elements/1.1/"
   xmlns:cc="http://creativecommons.org/ns#"
   xmlns:rdf="http://www.w3.org/1999/02/22-rdf-syntax-ns#"
   xmlns:svg="http://www.w3.org/2000/svg"
   xmlns="http://www.w3.org/2000/svg"
   xmlns:xlink="http://www.w3.org/1999/xlink"
   xmlns:sodipodi="http://sodipodi.sourceforge.net/DTD/sodipodi-0.dtd"
   xmlns:inkscape="http://www.inkscape.org/namespaces/inkscape"
   width="8.3378954mm"
   height="9.1316557mm"
   viewBox="0 0 8.3378956 9.1316557"
   version="1.1"
   id="svg8"
   inkscape:version="0.92.5 (2060ec1f9f, 2020-04-08)"
   sodipodi:docname="tabletoperator_add.svg">
  <defs
     id="defs2">
    <linearGradient
       inkscape:collect="always"
       id="linearGradient893">
      <stop
         style="stop-color:#17be00;stop-opacity:1;"
         offset="0"
         id="stop889" />
      <stop
         style="stop-color:#17be00;stop-opacity:0;"
         offset="1"
         id="stop891" />
    </linearGradient>
    <linearGradient
       id="linearGradient937"
       osb:paint="solid">
      <stop
         style="stop-color:#080808;stop-opacity:1;"
         offset="0"
         id="stop935" />
    </linearGradient>
    <linearGradient
       inkscape:collect="always"
       xlink:href="#linearGradient893"
       id="linearGradient839-3"
       x1="2.4633336"
       y1="6.8843708"
       x2="14.47"
       y2="6.8843708"
       gradientUnits="userSpaceOnUse"
       gradientTransform="matrix(0.1187258,0.03209227,-0.03020677,0.09981078,8.5923258,3.7722342)" />
    <linearGradient
       inkscape:collect="always"
       xlink:href="#linearGradient893"
       id="linearGradient839"
       x1="2.4633336"
       y1="6.8843708"
       x2="14.47"
       y2="6.8843708"
       gradientUnits="userSpaceOnUse"
       gradientTransform="matrix(0.1187258,0.03209227,-0.03020677,0.09981078,8.0741981,5.0566194)" />
    <linearGradient
       inkscape:collect="always"
       xlink:href="#linearGradient893"
       id="linearGradient895"
       x1="7.62333"
       y1="7.2829369"
       x2="9.2638746"
       y2="7.2829369"
       gradientUnits="userSpaceOnUse" />
  </defs>
  <sodipodi:namedview
     id="base"
     pagecolor="#ffffff"
     bordercolor="#666666"
     borderopacity="1.0"
     inkscape:pageopacity="0.0"
     inkscape:pageshadow="2"
     inkscape:zoom="44.919245"
     inkscape:cx="34.623969"
     inkscape:cy="11.301368"
     inkscape:document-units="mm"
     inkscape:current-layer="layer1"
     showgrid="false"
     inkscape:snap-page="false"
     inkscape:snap-grids="true"
     showguides="false"
     inkscape:window-width="5120"
     inkscape:window-height="2096"
     inkscape:window-x="0"
     inkscape:window-y="27"
     inkscape:window-maximized="1"
     fit-margin-top="0"
     fit-margin-left="0"
     fit-margin-right="0"
     fit-margin-bottom="0">
    <inkscape:grid
       type="xygrid"
       id="grid854"
       originx="-5.4883454"
       originy="-285.41751" />
  </sodipodi:namedview>
  <metadata
     id="metadata5">
    <rdf:RDF>
      <cc:Work
         rdf:about="">
        <dc:format>image/svg+xml</dc:format>
        <dc:type
           rdf:resource="http://purl.org/dc/dcmitype/StillImage" />
        <dc:title />
      </cc:Work>
    </rdf:RDF>
  </metadata>
  <g
     inkscape:label="Rahmen"
     inkscape:groupmode="layer"
     id="layer1"
     transform="translate(-5.4883453,-2.4508497)">
    <text
       xml:space="preserve"
       style="font-style:normal;font-weight:normal;font-size:10.58333302px;line-height:1.25;font-family:sans-serif;letter-spacing:0px;word-spacing:0px;fill:#000000;fill-opacity:1;stroke:none;stroke-width:0.26458332"
       x="11.258969"
       y="10.289699"
       id="text889-7"><tspan
         sodipodi:role="line"
         id="tspan887-5"
         x="11.258969"
         y="19.653467"
         style="font-size:1.41111112px;stroke-width:0.26458332" /></text>
    <path
       style="fill:#e2e2e2;fill-opacity:1;stroke:#b5945b;stroke-width:0.66500002;stroke-linecap:butt;stroke-linejoin:round;stroke-miterlimit:4;stroke-dasharray:none;stroke-opacity:1"
       d="M 7.6729167,5.4291777 5.8208332,10.191678 11.1125,11.250011 13.49375,3.8416777 8.73125,2.7833444 Z"
       id="path841"
       inkscape:connector-curvature="0"
       sodipodi:nodetypes="cccccc" />
    <path
       style="fill:none;stroke:#6d6d6d;stroke-width:0.26499999;stroke-linecap:butt;stroke-linejoin:round;stroke-miterlimit:4;stroke-dasharray:none;stroke-opacity:1"
       d="M 10.389075,3.2020347 9.6175373,3.8052373 12.044375,4.3383 11.847984,3.5527339 Z"
       id="path843"
       inkscape:connector-curvature="0" />
    <path
       style="fill:none;stroke:#000000;stroke-width:0.029957px;stroke-linecap:butt;stroke-linejoin:miter;stroke-opacity:1"
       d="m 8.7041639,4.1887028 c 0.023977,-0.079225 0.1027868,-0.1150591 0.1970254,-0.089586 l 1.2565147,0.3396431 c 0.09424,0.025473 0.141079,0.095273 0.117103,0.1744967 l -0.199805,0.6602069 c -0.02398,0.079225 -0.1027868,0.1150592 -0.1970254,0.089586 L 8.621462,5.0234063 C 8.5272234,4.997933 8.4803826,4.9281335 8.5043586,4.8489096 Z"
       id="path852-5"
       inkscape:connector-curvature="0"
       sodipodi:nodetypes="ccccccccc" />
    <path
       style="fill:url(#linearGradient839-3);fill-opacity:1.0;stroke:#000000;stroke-width:0.04132652;stroke-linecap:butt;stroke-linejoin:miter;stroke-miterlimit:4;stroke-dasharray:none;stroke-opacity:1"
       d="m 8.7984025,4.2141761 c 0.023977,-0.079225 0.063382,-0.097142 0.1576202,-0.071669 l 1.1308633,0.3056788 c 0.09424,0.025473 0.117659,0.060373 0.09368,0.1395975 L 9.9807634,5.2479903 c -0.023977,0.079225 -0.063382,0.097142 -0.1576204,0.071669 L 8.6922798,5.0139801 C 8.5980414,4.9885069 8.5746206,4.9536077 8.5985972,4.8743828 Z"
       id="path862-3"
       inkscape:connector-curvature="0"
       sodipodi:nodetypes="ccccccccc" />
    <path
       style="fill:none;fill-opacity:1;stroke:#000000;stroke-width:0.00184493;stroke-linecap:square;stroke-linejoin:miter;stroke-miterlimit:4;stroke-dasharray:none;stroke-opacity:1"
       d="M 8.5978455,5.0000749 C 8.5384025,4.9743599 8.5085475,4.9276589 8.5165115,4.872852 8.5175815,4.865522 8.5493175,4.7594585 8.6231503,4.5165108 L 8.7282693,4.1706 8.7356993,4.159854 c 0.021614,-0.031277 0.053474,-0.04967 0.09282,-0.053581 0.022585,-0.00224 0.053034,0.00168 0.087247,0.011254 l 0.013984,0.00392 -0.010135,-0.0016 c -0.051458,-0.00813 -0.088174,0.00349 -0.1122306,0.035519 -0.015024,0.020004 -0.00926,0.00218 -0.1265703,0.3914065 l -0.1073392,0.3561516 -3.437e-4,0.012618 c -0.00126,0.045909 0.01864,0.074384 0.066989,0.095868 l 0.00987,0.00438 -0.021038,-0.00568 c -0.011571,-0.00312 -0.025566,-0.00763 -0.031099,-0.010031 z"
       id="path864-5"
       inkscape:connector-curvature="0" />
    <path
       style="fill:#00000b;fill-opacity:1;stroke:#000000;stroke-width:0.0471009;stroke-linecap:square;stroke-linejoin:miter;stroke-miterlimit:4;stroke-dasharray:none;stroke-opacity:1"
       d="m 8.6078572,5.0020835 c -0.055656,-0.019536 -0.089922,-0.061221 -0.09094,-0.1106288 -1.94e-4,-0.0094 9.792e-4,-0.014603 0.013943,-0.061913 0.00851,-0.031067 0.051153,-0.172817 0.1069833,-0.3556556 l 0.092829,-0.3040022 0.00684,-0.00958 c 0.013054,-0.018285 0.027632,-0.030744 0.04687,-0.040048 0.030836,-0.014914 0.062036,-0.016631 0.1119392,-0.00616 l 0.010698,0.00225 -0.012727,-2.412e-4 c -0.020994,-3.961e-4 -0.036288,0.00248 -0.052411,0.00987 -0.019786,0.00907 -0.035036,0.023693 -0.046233,0.04434 -0.00286,0.00528 -0.033616,0.1048063 -0.1138662,0.3685193 L 8.571835,4.900129 8.5715619,4.91376 c -8.625e-4,0.042944 0.015299,0.070915 0.052809,0.091409 l 0.00911,0.00498 -0.00699,-0.00197 c -0.00384,-0.00109 -0.012231,-0.00382 -0.018642,-0.00608 z"
       id="path866-6"
       inkscape:connector-curvature="0" />
    <path
       style="fill:#00000b;fill-opacity:1;stroke:#000000;stroke-width:0.01347357;stroke-linecap:square;stroke-linejoin:miter;stroke-miterlimit:4;stroke-dasharray:none;stroke-opacity:1"
       d="m 9.8677196,5.3434498 c 0.027052,0.00282 0.047828,8.866e-4 0.064875,-0.00603 0.027225,-0.01104 0.043542,-0.030029 0.058373,-0.067932 0.005,-0.012771 0.03904,-0.1241707 0.1105104,-0.3616712 0.111221,-0.3695432 0.104709,-0.3464527 0.10454,-0.3715752 -1.78e-4,-0.025139 -0.01214,-0.049249 -0.03251,-0.065533 -0.008,-0.00637 -0.02562,-0.016266 -0.03958,-0.022197 l -0.0121,-0.00514 0.02603,0.00767 c 0.01431,0.00422 0.03079,0.00982 0.0366,0.012441 0.0554,0.025016 0.08341,0.068048 0.07906,0.1214599 -6.33e-4,0.00777 -0.01851,0.067997 -0.105126,0.3541994 -0.0975,0.3221641 -0.104732,0.3455079 -0.110055,0.3549706 -0.02403,0.042747 -0.068001,0.064793 -0.1238822,0.06211 -0.012882,-6.178e-4 -0.018568,-0.00163 -0.041031,-0.00729 -0.025108,-0.00632 -0.02569,-0.00654 -0.015708,-0.00549 z"
       id="path868-2"
       inkscape:connector-curvature="0" />
    <rect
       style="fill:#cfcfcf;fill-opacity:1;stroke:#000000;stroke-width:0.01163812;stroke-linecap:square;stroke-linejoin:miter;stroke-miterlimit:4;stroke-dasharray:none;stroke-opacity:1"
       id="rect870-9"
       width="0.39048272"
       height="0.22072902"
       x="9.743825"
       y="2.2973356"
       ry="0"
       transform="matrix(0.96535476,0.26094095,-0.28966559,0.95712792,0,0)" />
    <rect
       style="fill:#cfcfcf;fill-opacity:1;stroke:#000000;stroke-width:0.01163812;stroke-linecap:square;stroke-linejoin:miter;stroke-miterlimit:4;stroke-dasharray:none;stroke-opacity:1"
       id="rect870-6-1"
       width="0.3904826"
       height="0.22072902"
       x="10.589871"
       y="2.2973356"
       transform="matrix(0.96535476,0.26094095,-0.28966559,0.95712792,0,0)" />
    <text
       xml:space="preserve"
       style="font-style:normal;font-weight:normal;font-size:1.19827998px;line-height:1.25;font-family:sans-serif;letter-spacing:0px;word-spacing:0px;fill:#000000;fill-opacity:1;stroke:none;stroke-width:0.029957"
       x="8.971508"
       y="2.7022836"
       id="text889-2"
       transform="matrix(1.0485985,0.28344222,-0.26678937,0.88153915,0,0)"><tspan
         sodipodi:role="line"
         id="tspan887-7"
         x="8.971508"
         y="2.7022836"
         style="font-size:0.23965599px;line-height:2.25;stroke-width:0.029957">+1</tspan></text>
    <text
       xml:space="preserve"
       style="font-style:normal;font-weight:normal;font-size:1.19827998px;line-height:1.25;font-family:sans-serif;letter-spacing:0px;word-spacing:0px;fill:#000000;fill-opacity:1;stroke:none;stroke-width:0.029957"
       x="9.7652102"
       y="2.7105548"
       id="text889-3-0"
       transform="matrix(1.0485985,0.28344222,-0.26678937,0.88153915,0,0)"><tspan
         sodipodi:role="line"
         id="tspan887-56-9"
         x="9.7652102"
         y="2.7105548"
         style="font-size:0.23965599px;line-height:2.25;stroke-width:0.029957">+1</tspan></text>
    <path
       style="fill:none;stroke:#000000;stroke-width:0.029957px;stroke-linecap:butt;stroke-linejoin:miter;stroke-opacity:1"
       d="M 8.1860362,5.473088 C 8.2100132,5.393863 8.288823,5.3580289 8.3830616,5.383502 l 1.2565146,0.3396431 c 0.094239,0.025473 0.1410794,0.095273 0.1171033,0.1744967 L 9.5568743,6.5578487 C 9.5328977,6.6370735 9.4540875,6.6729079 9.3598489,6.6474346 L 8.1033343,6.3077915 C 8.0090957,6.2823182 7.9622549,6.2125187 7.9862309,6.1332948 Z"
       id="path852"
       inkscape:connector-curvature="0"
       sodipodi:nodetypes="ccccccccc" />
    <path
       style="fill:url(#linearGradient839);fill-opacity:1.0;stroke:#000000;stroke-width:0.04132652;stroke-linecap:butt;stroke-linejoin:miter;stroke-miterlimit:4;stroke-dasharray:none;stroke-opacity:1"
       d="m 8.2802748,5.4985613 c 0.023977,-0.079225 0.063382,-0.097142 0.1576202,-0.071669 l 1.1308632,0.3056788 c 0.094239,0.025473 0.1176594,0.060373 0.093683,0.1395975 L 9.4626357,6.5323755 c -0.023977,0.079225 -0.063382,0.097142 -0.1576204,0.071669 L 8.1741521,6.2983653 C 8.0799137,6.2728921 8.0564929,6.2379929 8.0804695,6.158768 Z"
       id="path862"
       inkscape:connector-curvature="0"
       sodipodi:nodetypes="ccccccccc" />
    <path
       style="fill:none;fill-opacity:1;stroke:#000000;stroke-width:0.00184493;stroke-linecap:square;stroke-linejoin:miter;stroke-miterlimit:4;stroke-dasharray:none;stroke-opacity:1"
       d="m 8.0797178,6.2844601 c -0.059443,-0.025715 -0.089298,-0.072416 -0.081334,-0.1272229 0.00107,-0.00733 0.032806,-0.1133935 0.1066388,-0.3563412 l 0.105119,-0.3459108 0.00743,-0.010746 c 0.021614,-0.031277 0.053474,-0.04967 0.09282,-0.053581 0.022585,-0.00224 0.053034,0.00168 0.087247,0.011254 l 0.013984,0.00392 -0.010135,-0.0016 c -0.051458,-0.00813 -0.088174,0.00349 -0.1122306,0.035519 -0.015024,0.020004 -0.00926,0.00218 -0.1265703,0.3914065 l -0.1073392,0.3561516 -3.437e-4,0.012618 c -0.00126,0.045909 0.01864,0.074384 0.066989,0.095868 l 0.00987,0.00438 -0.021038,-0.00568 c -0.011571,-0.00312 -0.025566,-0.00763 -0.031099,-0.010031 z"
       id="path864"
       inkscape:connector-curvature="0" />
    <path
       style="fill:#00000b;fill-opacity:1;stroke:#000000;stroke-width:0.0471009;stroke-linecap:square;stroke-linejoin:miter;stroke-miterlimit:4;stroke-dasharray:none;stroke-opacity:1"
       d="m 8.0897295,6.2864687 c -0.055656,-0.019536 -0.089922,-0.061221 -0.09094,-0.1106288 -1.94e-4,-0.0094 9.792e-4,-0.014603 0.013943,-0.061913 0.00851,-0.031067 0.051153,-0.172817 0.1069833,-0.3556556 l 0.092829,-0.3040022 0.00684,-0.00958 c 0.013054,-0.018285 0.027632,-0.030744 0.04687,-0.040048 0.030836,-0.014914 0.062036,-0.016631 0.1119392,-0.00616 l 0.010698,0.00225 -0.012727,-2.412e-4 c -0.020994,-3.961e-4 -0.036288,0.00248 -0.052411,0.00987 -0.019786,0.00907 -0.035036,0.023693 -0.046233,0.04434 -0.00286,0.00528 -0.033616,0.1048063 -0.1138662,0.3685193 l -0.1099475,0.361295 -2.731e-4,0.01363 c -8.625e-4,0.042944 0.015299,0.070915 0.052809,0.091409 l 0.00911,0.00498 -0.00699,-0.00197 c -0.00384,-0.00109 -0.012231,-0.00382 -0.018642,-0.00608 z"
       id="path866"
       inkscape:connector-curvature="0" />
    <path
       style="fill:#00000b;fill-opacity:1;stroke:#000000;stroke-width:0.01347357;stroke-linecap:square;stroke-linejoin:miter;stroke-miterlimit:4;stroke-dasharray:none;stroke-opacity:1"
       d="m 9.3495919,6.627835 c 0.027052,0.00282 0.047828,8.866e-4 0.064875,-0.00603 0.027225,-0.01104 0.043542,-0.030029 0.058373,-0.067932 C 9.4778299,6.541102 9.5118769,6.4297023 9.5833505,6.1922018 9.6945716,5.8226586 9.6880588,5.8457491 9.68789,5.8206266 9.6877122,5.7954876 9.675752,5.7713776 9.655379,5.7550936 9.647409,5.7487236 9.629763,5.7388276 9.615803,5.7328966 l -0.012098,-0.00514 0.026027,0.00767 c 0.014315,0.00422 0.030787,0.00982 0.036604,0.012441 0.055398,0.025016 0.083406,0.068048 0.079055,0.1214599 -6.324e-4,0.00777 -0.018509,0.067997 -0.1051257,0.3541994 -0.0975,0.3221641 -0.1047317,0.3455079 -0.1100555,0.3549706 -0.024029,0.042747 -0.068,0.064793 -0.1238813,0.06211 -0.012882,-6.178e-4 -0.018568,-0.00163 -0.041031,-0.00729 -0.025108,-0.00632 -0.02569,-0.00654 -0.015708,-0.00549 z"
       id="path868"
       inkscape:connector-curvature="0" />
    <rect
       style="fill:#cfcfcf;fill-opacity:1;stroke:#000000;stroke-width:0.01163812;stroke-linecap:square;stroke-linejoin:miter;stroke-miterlimit:4;stroke-dasharray:none;stroke-opacity:1"
       id="rect870"
       width="0.39048272"
       height="0.22072902"
       x="9.6198978"
       y="3.673038"
       ry="0"
       transform="matrix(0.96535476,0.26094095,-0.28966559,0.95712792,0,0)" />
    <rect
       style="fill:#cfcfcf;fill-opacity:1;stroke:#000000;stroke-width:0.01163812;stroke-linecap:square;stroke-linejoin:miter;stroke-miterlimit:4;stroke-dasharray:none;stroke-opacity:1"
       id="rect870-6"
       width="0.3904826"
       height="0.22072902"
       x="10.465944"
       y="3.673038"
       transform="matrix(0.96535476,0.26094095,-0.28966559,0.95712792,0,0)" />
    <text
       xml:space="preserve"
       style="font-style:normal;font-weight:normal;font-size:1.19827998px;line-height:1.25;font-family:sans-serif;letter-spacing:0px;word-spacing:0px;fill:#000000;fill-opacity:1;stroke:none;stroke-width:0.029957"
       x="8.857419"
       y="4.1959476"
       id="text889"
       transform="matrix(1.0485985,0.28344222,-0.26678937,0.88153915,0,0)"><tspan
         sodipodi:role="line"
         id="tspan887"
         x="8.857419"
         y="4.1959476"
         style="font-size:0.23965599px;line-height:2.25;stroke-width:0.029957">+1</tspan></text>
    <text
       xml:space="preserve"
       style="font-style:normal;font-weight:normal;font-size:1.19827998px;line-height:1.25;font-family:sans-serif;letter-spacing:0px;word-spacing:0px;fill:#000000;fill-opacity:1;stroke:none;stroke-width:0.029957"
       x="9.6387081"
       y="4.1959476"
       id="text889-3"
       transform="matrix(1.0485985,0.28344222,-0.26678937,0.88153915,0,0)"><tspan
         sodipodi:role="line"
         id="tspan887-56"
         x="9.6387081"
         y="4.1959476"
         style="font-size:0.23965599px;line-height:2.25;stroke-width:0.029957">+1</tspan></text>
    <path
       style="fill:none;stroke:#000000;stroke-width:0.029957px;stroke-linecap:butt;stroke-linejoin:miter;stroke-opacity:1"
       d="M 7.7581832,6.7405565 C 7.7821602,6.6613315 7.86097,6.6254974 7.9552086,6.6509705 l 1.2565146,0.3396431 c 0.094239,0.025473 0.1410794,0.095273 0.1171033,0.1744967 L 9.1290213,7.8253172 C 9.1050447,7.904542 9.0262345,7.9403764 8.9319959,7.9149031 L 7.6754813,7.57526 C 7.5812427,7.5497867 7.5344019,7.4799872 7.5583779,7.4007633 Z"
       id="path852-6"
       inkscape:connector-curvature="0"
       sodipodi:nodetypes="ccccccccc" />
    <path
       style="fill:url(#linearGradient895);fill-opacity:1;stroke:#000000;stroke-width:0.04132652;stroke-linecap:butt;stroke-linejoin:miter;stroke-miterlimit:4;stroke-dasharray:none;stroke-opacity:1"
       d="m 7.8524218,6.7660298 c 0.023977,-0.079225 0.063382,-0.097142 0.1576202,-0.071669 l 1.1308632,0.3056788 c 0.094239,0.025473 0.1176594,0.060373 0.093683,0.1395975 L 9.0347827,7.799844 C 9.0108057,7.879069 8.9714007,7.896986 8.8771623,7.871513 L 7.7462991,7.5658338 C 7.6520607,7.5403606 7.6286399,7.5054614 7.6526165,7.4262365 Z"
       id="path862-1"
       inkscape:connector-curvature="0"
       sodipodi:nodetypes="ccccccccc" />
    <path
       style="fill:none;fill-opacity:1;stroke:#000000;stroke-width:0.00184493;stroke-linecap:square;stroke-linejoin:miter;stroke-miterlimit:4;stroke-dasharray:none;stroke-opacity:1"
       d="m 7.6518648,7.5519286 c -0.059443,-0.025715 -0.089298,-0.072416 -0.081334,-0.1272229 0.00107,-0.00733 0.032806,-0.1133935 0.1066388,-0.3563412 l 0.105119,-0.3459108 0.00743,-0.010746 c 0.021614,-0.031277 0.053474,-0.04967 0.09282,-0.053581 0.022585,-0.00224 0.053034,0.00168 0.087247,0.011254 l 0.013984,0.00392 -0.010135,-0.0016 c -0.051458,-0.00813 -0.088174,0.00349 -0.1122306,0.035519 -0.015024,0.020004 -0.00926,0.00218 -0.1265703,0.3914065 l -0.1073392,0.3561516 -3.437e-4,0.012618 c -0.00126,0.045909 0.01864,0.074384 0.066989,0.095868 l 0.00987,0.00438 -0.021038,-0.00568 c -0.011571,-0.00312 -0.025566,-0.00763 -0.031099,-0.010031 z"
       id="path864-8"
       inkscape:connector-curvature="0" />
    <path
       style="fill:#00000b;fill-opacity:1;stroke:#000000;stroke-width:0.0471009;stroke-linecap:square;stroke-linejoin:miter;stroke-miterlimit:4;stroke-dasharray:none;stroke-opacity:1"
       d="m 7.6618765,7.5539372 c -0.055656,-0.019536 -0.089922,-0.061221 -0.09094,-0.1106288 -1.94e-4,-0.0094 9.792e-4,-0.014603 0.013943,-0.061913 0.00851,-0.031067 0.051153,-0.172817 0.1069833,-0.3556556 l 0.092829,-0.3040022 0.00684,-0.00958 c 0.013054,-0.018285 0.027632,-0.030744 0.04687,-0.040048 0.030836,-0.014914 0.062036,-0.016631 0.1119392,-0.00616 l 0.010698,0.00225 -0.012727,-2.412e-4 c -0.020994,-3.961e-4 -0.036288,0.00248 -0.052411,0.00987 -0.019786,0.00907 -0.035036,0.023693 -0.046233,0.04434 -0.00286,0.00528 -0.033616,0.1048063 -0.1138662,0.3685193 l -0.1099475,0.361295 -2.731e-4,0.01363 c -8.625e-4,0.042944 0.015299,0.070915 0.052809,0.091409 l 0.00911,0.00498 -0.00699,-0.00197 c -0.00384,-0.00109 -0.012231,-0.00382 -0.018642,-0.00608 z"
       id="path866-7"
       inkscape:connector-curvature="0" />
    <path
       style="fill:#00000b;fill-opacity:1;stroke:#000000;stroke-width:0.01347357;stroke-linecap:square;stroke-linejoin:miter;stroke-miterlimit:4;stroke-dasharray:none;stroke-opacity:1"
       d="m 8.9217389,7.8953035 c 0.027052,0.00282 0.047828,8.866e-4 0.064875,-0.00603 0.027225,-0.01104 0.043542,-0.030029 0.058373,-0.067932 0.00499,-0.012771 0.039037,-0.1241707 0.1105106,-0.3616712 C 9.2667186,7.0901271 9.2602058,7.1132176 9.260037,7.0880951 9.2598592,7.0629561 9.247899,7.0388461 9.227526,7.0225621 9.219556,7.0161921 9.20191,7.0062961 9.18795,7.0003651 l -0.012098,-0.00514 0.026027,0.00767 c 0.014315,0.00422 0.030787,0.00982 0.036604,0.012441 0.055398,0.025016 0.083406,0.068048 0.079055,0.1214599 -6.324e-4,0.00777 -0.018509,0.067997 -0.1051257,0.3541994 -0.0975,0.3221641 -0.1047317,0.3455079 -0.1100555,0.3549706 -0.024029,0.042747 -0.068,0.064793 -0.1238813,0.06211 -0.012882,-6.178e-4 -0.018568,-0.00163 -0.041031,-0.00729 -0.025108,-0.00632 -0.02569,-0.00654 -0.015708,-0.00549 z"
       id="path868-9"
       inkscape:connector-curvature="0" />
    <rect
       style="fill:#cfcfcf;fill-opacity:1;stroke:#000000;stroke-width:0.01163812;stroke-linecap:square;stroke-linejoin:miter;stroke-miterlimit:4;stroke-dasharray:none;stroke-opacity:1"
       id="rect870-2"
       width="0.39048272"
       height="0.22072902"
       x="9.5775108"
       y="5.0088348"
       ry="0"
       transform="matrix(0.96535476,0.26094095,-0.28966559,0.95712792,0,0)" />
    <rect
       style="fill:#cfcfcf;fill-opacity:1;stroke:#000000;stroke-width:0.01163812;stroke-linecap:square;stroke-linejoin:miter;stroke-miterlimit:4;stroke-dasharray:none;stroke-opacity:1"
       id="rect870-6-0"
       width="0.3904826"
       height="0.22072902"
       x="10.423557"
       y="5.0088348"
       transform="matrix(0.96535476,0.26094095,-0.28966559,0.95712792,0,0)" />
    <text
       xml:space="preserve"
       style="font-style:normal;font-weight:normal;font-size:1.19827998px;line-height:1.25;font-family:sans-serif;letter-spacing:0px;word-spacing:0px;fill:#000000;fill-opacity:1;stroke:none;stroke-width:0.029957"
       x="8.8183975"
       y="5.6462841"
       id="text889-23"
       transform="matrix(1.0485985,0.28344222,-0.26678937,0.88153915,0,0)"><tspan
         sodipodi:role="line"
         id="tspan887-75"
         x="8.8183975"
         y="5.6462841"
         style="font-size:0.23965599px;line-height:2.25;stroke-width:0.029957">+1</tspan></text>
    <text
       xml:space="preserve"
       style="font-style:normal;font-weight:normal;font-size:1.19827998px;line-height:1.25;font-family:sans-serif;letter-spacing:0px;word-spacing:0px;fill:#000000;fill-opacity:1;stroke:none;stroke-width:0.029957"
       x="9.5996857"
       y="5.6462841"
       id="text889-3-9"
       transform="matrix(1.0485985,0.28344222,-0.26678937,0.88153915,0,0)"><tspan
         sodipodi:role="line"
         id="tspan887-56-2"
         x="9.5996857"
         y="5.6462841"
         style="font-size:0.23965599px;line-height:2.25;stroke-width:0.029957">+1</tspan></text>
    <rect
       style="opacity:1;fill:#0c0c0c;fill-opacity:1;stroke:none;stroke-width:0.26499999;stroke-linecap:butt;stroke-linejoin:round;stroke-miterlimit:4;stroke-dasharray:none;stroke-opacity:1;paint-order:markers fill stroke"
       id="rect990"
       width="1.8797476"
       height="0.50500685"
       x="11.457085"
       y="2.3950338"
       transform="rotate(13.62988)"
       inkscape:transform-center-x="-0.20285084"
       inkscape:transform-center-y="-0.44689482" />
    <rect
       style="opacity:1;fill:#0c0c0c;fill-opacity:1;stroke:none;stroke-width:0.26499999;stroke-linecap:butt;stroke-linejoin:round;stroke-miterlimit:4;stroke-dasharray:none;stroke-opacity:1;paint-order:markers fill stroke"
       id="rect990-2"
       width="1.8797476"
       height="0.50500685"
       x="11.311042"
       y="3.8068385"
       transform="rotate(13.62988)"
       inkscape:transform-center-x="-0.20285084"
       inkscape:transform-center-y="-0.44689482" />
    <rect
       style="opacity:1;fill:#0c0c0c;fill-opacity:1;stroke:none;stroke-width:0.26499999;stroke-linecap:butt;stroke-linejoin:round;stroke-miterlimit:4;stroke-dasharray:none;stroke-opacity:1;paint-order:markers fill stroke"
       id="rect990-8"
       width="1.8797476"
       height="0.50500685"
       x="11.222168"
       y="5.1232448"
       transform="rotate(13.62988)"
       inkscape:transform-center-x="-0.20285084"
       inkscape:transform-center-y="-0.44689482" />
    <path
       style="fill:#17be00;fill-opacity:1;stroke:#000000;stroke-width:0.10417034;stroke-linecap:butt;stroke-linejoin:miter;stroke-miterlimit:4;stroke-dasharray:none;stroke-opacity:1"
       d="M 7.9131194,7.9788021 7.706324,8.6087719 7.0117022,8.3933975 6.8155113,8.9964455 7.5154354,9.2010512 7.313942,9.8525583 7.9820513,10.062547 8.1835445,9.3895034 8.830444,9.5941089 9.0213326,8.9856769 8.395643,8.8026089 8.5865309,8.1780236 Z"
       id="path1013"
       inkscape:connector-curvature="0"
       sodipodi:nodetypes="ccccccccccccc" />
    <rect
       style="opacity:1;fill:#0c0c0c;fill-opacity:1;stroke:none;stroke-width:0.26499999;stroke-linecap:butt;stroke-linejoin:round;stroke-miterlimit:4;stroke-dasharray:none;stroke-opacity:1;paint-order:markers fill stroke"
       id="rect990-8-3"
       width="1.8797476"
       height="0.50500685"
       x="11.120723"
       y="6.6829324"
       transform="rotate(13.62988)"
       inkscape:transform-center-x="-0.20285084"
       inkscape:transform-center-y="-0.44689482" />
  </g>
</svg>
